<svg xmlns="http://www.w3.org/2000/svg" xmlns:svg="http://www.w3.org/2000/svg" xmlns:xlink="http://www.w3.org/1999/xlink" id="svg2" width="748.21" height="748.21" version="1.1" viewBox="0 0 748.21 748.21" xml:space="preserve"><metadata id="metadata8"/><defs id="defs6"><clipPath id="clipPath16" clipPathUnits="userSpaceOnUse"><path id="path18" d="m 377.992,256.318 12.131,8.412 20.734,43.444 -109.92,73.948 77.055,-125.804 z"/></clipPath><linearGradient id="linearGradient24" x1="0" x2="1" y1="0" y2="0" gradientTransform="matrix(109.92122,0,0,-109.92122,300.93652,319.22006)" gradientUnits="userSpaceOnUse" spreadMethod="pad"><stop style="stop-opacity:1;stop-color:#dd1865" id="stop26" offset="0"/><stop style="stop-opacity:1;stop-color:#642b80" id="stop28" offset="1"/></linearGradient><clipPath id="clipPath40" clipPathUnits="userSpaceOnUse"><path id="path42" d="m 410.857,308.174 -42.968,44.968 -66.952,28.98 109.92,-73.948 z"/></clipPath><linearGradient id="linearGradient46" x1="0" x2="1" y1="0" y2="0" gradientTransform="matrix(109.92122,0,0,-109.92122,300.93652,345.14822)" gradientUnits="userSpaceOnUse" spreadMethod="pad"><stop style="stop-opacity:1;stop-color:#dd1865" id="stop48" offset="0"/><stop style="stop-opacity:1;stop-color:#642b80" id="stop50" offset="1"/></linearGradient><clipPath id="clipPath62" clipPathUnits="userSpaceOnUse"><path id="path64" d="m 367.889,353.142 42.968,7.994 -109.92,20.986 66.952,-28.98 z"/></clipPath><linearGradient id="linearGradient68" x1="0" x2="1" y1="0" y2="0" gradientTransform="matrix(109.92122,0,0,-109.92122,300.93652,367.63211)" gradientUnits="userSpaceOnUse" spreadMethod="pad"><stop style="stop-opacity:1;stop-color:#dd1865" id="stop70" offset="0"/><stop style="stop-opacity:1;stop-color:#642b80" id="stop72" offset="1"/></linearGradient><clipPath id="clipPath84" clipPathUnits="userSpaceOnUse"><path id="path86" d="m 411.857,361.136 22.984,95.932 -133.904,-74.946 110.92,-20.986 z"/></clipPath><linearGradient id="linearGradient90" x1="0" x2="1" y1="0" y2="0" gradientTransform="matrix(133.90402,0,0,-133.90402,300.93652,409.10239)" gradientUnits="userSpaceOnUse" spreadMethod="pad"><stop style="stop-opacity:1;stop-color:#dd1865" id="stop92" offset="0"/><stop style="stop-opacity:1;stop-color:#642b80" id="stop94" offset="1"/></linearGradient><clipPath id="clipPath106" clipPathUnits="userSpaceOnUse"><path id="path108" d="m 434.841,457.068 -80.943,-14.989 -52.961,-59.957 133.904,74.946 z"/></clipPath><linearGradient id="linearGradient112" x1="0" x2="1" y1="0" y2="0" gradientTransform="matrix(133.90402,0,0,-133.90402,300.93652,419.59488)" gradientUnits="userSpaceOnUse" spreadMethod="pad"><stop style="stop-opacity:1;stop-color:#dd1865" id="stop114" offset="0"/><stop style="stop-opacity:1;stop-color:#642b80" id="stop116" offset="1"/></linearGradient><clipPath id="clipPath128" clipPathUnits="userSpaceOnUse"><path id="path130" d="m 272.397,335.771 28.493,0 0,-15.766 -39.531,-64.202 -38.056,0.915 49.094,79.053 z"/></clipPath><linearGradient id="linearGradient134" x1="0" x2="1" y1="0" y2="0" gradientTransform="matrix(-77.586571,0,0,-77.586571,300.88953,295.78754)" gradientUnits="userSpaceOnUse" spreadMethod="pad"><stop style="stop-opacity:1;stop-color:#dd1865" id="stop136" offset="0"/><stop style="stop-opacity:1;stop-color:#642b80" id="stop138" offset="1"/></linearGradient><clipPath id="clipPath150" clipPathUnits="userSpaceOnUse"><path id="path152" d="m 329.327,335.771 -28.437,0 0,-15.766 39.576,-64.202 37.526,0.515 -48.665,79.453 z"/></clipPath><linearGradient id="linearGradient156" x1="0" x2="1" y1="0" y2="0" gradientTransform="matrix(77.103111,0,0,-77.103111,300.88953,295.78754)" gradientUnits="userSpaceOnUse" spreadMethod="pad"><stop style="stop-opacity:1;stop-color:#dd1865" id="stop158" offset="0"/><stop style="stop-opacity:1;stop-color:#642b80" id="stop160" offset="1"/></linearGradient><clipPath id="clipPath172" clipPathUnits="userSpaceOnUse"><path id="path174" d="m 223.303,256.718 -11.553,8.012 -20.734,43.444 109.921,73.948 -77.634,-125.404 z"/></clipPath><linearGradient id="linearGradient178" x1="0" x2="1" y1="0" y2="0" gradientTransform="matrix(-109.92122,0,0,-109.92122,300.93652,319.42026)" gradientUnits="userSpaceOnUse" spreadMethod="pad"><stop style="stop-opacity:1;stop-color:#dd1865" id="stop180" offset="0"/><stop style="stop-opacity:1;stop-color:#642b80" id="stop182" offset="1"/></linearGradient><clipPath id="clipPath194" clipPathUnits="userSpaceOnUse"><path id="path196" d="m 191.016,308.174 42.968,44.968 66.953,28.98 -109.921,-73.948 z"/></clipPath><linearGradient id="linearGradient200" x1="0" x2="1" y1="0" y2="0" gradientTransform="matrix(-109.92122,0,0,-109.92122,300.93652,345.14822)" gradientUnits="userSpaceOnUse" spreadMethod="pad"><stop style="stop-opacity:1;stop-color:#dd1865" id="stop202" offset="0"/><stop style="stop-opacity:1;stop-color:#642b80" id="stop204" offset="1"/></linearGradient><clipPath id="clipPath216" clipPathUnits="userSpaceOnUse"><path id="path218" d="m 233.984,353.142 -42.968,7.994 109.921,20.986 -66.953,-28.98 z"/></clipPath><linearGradient id="linearGradient222" x1="0" x2="1" y1="0" y2="0" gradientTransform="matrix(-109.92122,0,0,-109.92122,300.93652,367.63211)" gradientUnits="userSpaceOnUse" spreadMethod="pad"><stop style="stop-opacity:1;stop-color:#dd1865" id="stop224" offset="0"/><stop style="stop-opacity:1;stop-color:#642b80" id="stop226" offset="1"/></linearGradient><clipPath id="clipPath238" clipPathUnits="userSpaceOnUse"><path id="path240" d="M 190.016,361.136 167.032,457.068 300.937,382.122 190.016,361.136 Z"/></clipPath><linearGradient id="linearGradient244" x1="0" x2="1" y1="0" y2="0" gradientTransform="matrix(-133.90402,0,0,-133.90402,300.93652,409.10239)" gradientUnits="userSpaceOnUse" spreadMethod="pad"><stop style="stop-opacity:1;stop-color:#dd1865" id="stop246" offset="0"/><stop style="stop-opacity:1;stop-color:#642b80" id="stop248" offset="1"/></linearGradient><clipPath id="clipPath260" clipPathUnits="userSpaceOnUse"><path id="path262" d="m 167.032,457.068 80.943,-14.989 52.962,-59.957 -133.905,74.946 z"/></clipPath><linearGradient id="linearGradient266" x1="0" x2="1" y1="0" y2="0" gradientTransform="matrix(-133.90402,0,0,-133.90402,300.93652,419.59488)" gradientUnits="userSpaceOnUse" spreadMethod="pad"><stop style="stop-opacity:1;stop-color:#dd1865" id="stop268" offset="0"/><stop style="stop-opacity:1;stop-color:#642b80" id="stop270" offset="1"/></linearGradient><clipPath id="clipPath282" clipPathUnits="userSpaceOnUse"><path id="path284" d="m 282.813,418.666 18.459,29.978 18.458,-29.978 -36.917,0 z"/></clipPath><linearGradient id="linearGradient288" x1="0" x2="1" y1="0" y2="0" gradientTransform="matrix(0.0798139,-26.215998,-26.215998,-0.0798139,301.19751,443.21231)" gradientUnits="userSpaceOnUse" spreadMethod="pad"><stop style="stop-opacity:1;stop-color:#dd1865" id="stop290" offset="0"/><stop style="stop-opacity:1;stop-color:#922676" id="stop292" offset=".584"/><stop style="stop-opacity:1;stop-color:#642b80" id="stop294" offset="1"/></linearGradient><clipPath id="clipPath306" clipPathUnits="userSpaceOnUse"><path id="path308" d="m 0,598.568 598.568,0 L 598.568,0 0,0 0,598.568 Z"/></clipPath><linearGradient id="linearGradient5386" x1="102" x2="414" y1="-424.4" y2="-424.4" gradientTransform="matrix(0.15312558,0,0,0.67763184,254.54151,6.0027686)" gradientUnits="userSpaceOnUse" xlink:href="#linearGradient266"/><linearGradient id="linearGradient5493" x1="0" x2="1" y1="0" y2="0" gradientTransform="matrix(-133.90402,0,0,-133.90402,300.93652,419.59488)" gradientUnits="userSpaceOnUse" spreadMethod="pad" xlink:href="#linearGradient266"/></defs><g id="g10" transform="matrix(1.25,0,0,-1.25,0,748.21)"><g id="g4220"><g id="g5713" transform="translate(21.263837,14.885571)"><g id="g7355" style="opacity:1"><rect style="fill:#fff;fill-opacity:1;stroke:#000;stroke-width:0;stroke-miterlimit:4;stroke-dasharray:none;stroke-opacity:1" id="rect5604" width="38.715" height="32.538" x="258.663" y="-300.667" transform="scale(1,-1)"/><g id="g5600" transform="matrix(0.76698362,0,0,0.76698362,52.49025,68.427989)"><rect id="rect5370" width="47.653" height="39.574" x="270.222" y="-301.371" transform="scale(1,-1)" style="fill:#fff;fill-opacity:1;stroke:url(#linearGradient5386);stroke-width:.25769785;stroke-opacity:1"/><g id="g5491" transform="matrix(0.34722224,0,0,0.34722224,150.26874,186.27485)"><g id="g4101" transform="matrix(0.40011398,0,0,0.40011398,293.67511,131.87636)"><g id="g12"><g id="g14" clip-path="url(#clipPath16)"><g id="g20"><g id="g22"><path style="fill:url(#linearGradient24);stroke:none" id="path30" d="m 377.992,256.318 12.131,8.412 20.734,43.444 -109.92,73.948 z"/></g></g></g></g><g id="g32" transform="translate(377.9922,256.318)"><path style="fill:none;stroke:#622a82;stroke-width:.25;stroke-linecap:butt;stroke-linejoin:miter;stroke-miterlimit:1;stroke-dasharray:none;stroke-opacity:1" id="path34" d="M 0,0 12.131,8.412 32.865,51.856 -77.056,125.804 Z"/></g><g id="g36"><g id="g38" clip-path="url(#clipPath40)"><g id="g44"><path style="fill:url(#linearGradient46);stroke:none" id="path52" d="m 410.857,308.174 -42.968,44.968 -66.952,28.98 z"/></g></g></g><g id="g54" transform="translate(410.8574,308.1745)"><path style="fill:none;stroke:#622a82;stroke-width:.25;stroke-linecap:butt;stroke-linejoin:miter;stroke-miterlimit:1;stroke-dasharray:none;stroke-opacity:1" id="path56" d="m 0,0 -42.969,44.968 -66.952,28.979 z"/></g><g id="g58"><g id="g60" clip-path="url(#clipPath62)"><g id="g66"><path style="fill:url(#linearGradient68);stroke:none" id="path74" d="m 367.889,353.142 42.968,7.994 -109.92,20.986 z"/></g></g></g><g id="g76" transform="translate(367.8887,353.1422)"><path style="fill:none;stroke:#622a82;stroke-width:.25;stroke-linecap:butt;stroke-linejoin:miter;stroke-miterlimit:1;stroke-dasharray:none;stroke-opacity:1" id="path78" d="M 0,0 42.969,7.994 -66.952,28.979 Z"/></g><g id="g80"><g id="g82" clip-path="url(#clipPath84)"><g id="g88"><path style="fill:url(#linearGradient90);stroke:none" id="path96" d="m 411.857,361.136 22.984,95.932 -133.904,-74.946 z"/></g></g></g><g id="g98" transform="translate(411.8574,361.1364)"><path style="fill:none;stroke:#622a82;stroke-width:.25;stroke-linecap:butt;stroke-linejoin:miter;stroke-miterlimit:1;stroke-dasharray:none;stroke-opacity:1" id="path100" d="M 0,0 22.983,95.932 -110.921,20.985 Z"/></g><g id="g102"><g id="g104" clip-path="url(#clipPath106)"><g id="g110"><path style="fill:url(#linearGradient112);stroke:none" id="path118" d="M 434.841,457.068 353.898,442.079 300.937,382.122 Z"/></g></g></g><g id="g120" transform="translate(434.8408,457.068)"><path style="fill:none;stroke:#622a82;stroke-width:.25;stroke-linecap:butt;stroke-linejoin:miter;stroke-miterlimit:1;stroke-dasharray:none;stroke-opacity:1" id="path122" d="m 0,0 -80.942,-14.989 -52.962,-59.957 z"/></g><g id="g124"><g id="g126" clip-path="url(#clipPath128)"><g id="g132"><path style="fill:url(#linearGradient134);stroke:none" id="path140" d="m 272.397,335.771 h 28.493 v -15.766 l -39.531,-64.202 -38.056,0.915 z"/></g></g></g><g id="g142" transform="translate(272.3975,335.7711)"><path style="fill:none;stroke:#622a82;stroke-width:.25;stroke-linecap:butt;stroke-linejoin:miter;stroke-miterlimit:1;stroke-dasharray:none;stroke-opacity:1" id="path144" d="m 0,0 h 28.492 v -15.767 l -39.53,-64.201 -38.057,0.915 z"/></g><g id="g146"><g id="g148" clip-path="url(#clipPath150)"><g id="g154"><path style="fill:url(#linearGradient156);stroke:none" id="path162" d="M 329.327,335.771 H 300.89 v -15.766 l 39.576,-64.202 37.526,0.515 z"/></g></g></g><g id="g164" transform="translate(329.3271,335.7711)"><path style="fill:none;stroke:#622a82;stroke-width:.25;stroke-linecap:butt;stroke-linejoin:miter;stroke-miterlimit:1;stroke-dasharray:none;stroke-opacity:1" id="path166" d="m 0,0 h -28.437 v -15.767 l 39.576,-64.201 37.526,0.515 z"/></g><g id="g168"><g id="g170" clip-path="url(#clipPath172)"><g id="g176"><path style="fill:url(#linearGradient178);stroke:none" id="path184" d="m 223.303,256.718 -11.553,8.012 -20.734,43.444 109.921,73.948 z"/></g></g></g><g id="g186" transform="translate(223.3027,256.7184)"><path style="fill:none;stroke:#622a82;stroke-width:.25;stroke-linecap:butt;stroke-linejoin:miter;stroke-miterlimit:1;stroke-dasharray:none;stroke-opacity:1" id="path188" d="M 0,0 -11.553,8.012 -32.287,51.456 77.634,125.403 Z"/></g><g id="g190"><g id="g192" clip-path="url(#clipPath194)"><g id="g198"><path style="fill:url(#linearGradient200);stroke:none" id="path206" d="m 191.016,308.174 42.968,44.968 66.953,28.98 z"/></g></g></g><g id="g208" transform="translate(191.0156,308.1745)"><path style="fill:none;stroke:#622a82;stroke-width:.25;stroke-linecap:butt;stroke-linejoin:miter;stroke-miterlimit:1;stroke-dasharray:none;stroke-opacity:1" id="path210" d="m 0,0 42.969,44.968 66.952,28.979 z"/></g><g id="g212"><g id="g214" clip-path="url(#clipPath216)"><g id="g220"><path style="fill:url(#linearGradient222);stroke:none" id="path228" d="m 233.984,353.142 -42.968,7.994 109.921,20.986 z"/></g></g></g><g id="g230" transform="translate(233.9844,353.1422)"><path style="fill:none;stroke:#622a82;stroke-width:.25;stroke-linecap:butt;stroke-linejoin:miter;stroke-miterlimit:1;stroke-dasharray:none;stroke-opacity:1" id="path232" d="M 0,0 -42.969,7.994 66.952,28.979 Z"/></g><g id="g234"><g id="g236" clip-path="url(#clipPath238)"><g id="g242"><path style="fill:url(#linearGradient244);stroke:none" id="path250" d="m 190.016,361.136 -22.984,95.932 133.905,-74.946 z"/></g></g></g><g id="g252" transform="translate(190.0156,361.1364)"><path style="fill:none;stroke:#622a82;stroke-width:.25;stroke-linecap:butt;stroke-linejoin:miter;stroke-miterlimit:1;stroke-dasharray:none;stroke-opacity:1" id="path254" d="M 0,0 -22.983,95.932 110.921,20.985 Z"/></g><g id="g256"><g id="g258" clip-path="url(#clipPath260)"><g id="g264"><path style="fill:url(#linearGradient5493);stroke:none" id="path272" d="m 167.032,457.068 80.943,-14.989 52.962,-59.957 z"/></g></g></g><g id="g274" transform="translate(167.0322,457.068)"><path style="fill:none;stroke:#622a82;stroke-width:.25;stroke-linecap:butt;stroke-linejoin:miter;stroke-miterlimit:1;stroke-dasharray:none;stroke-opacity:1" id="path276" d="m 0,0 80.942,-14.989 52.962,-59.957 z"/></g><g id="g278"><g id="g280" clip-path="url(#clipPath282)"><g id="g286"><path style="fill:url(#linearGradient288);stroke:none" id="path296" d="m 282.813,418.666 18.459,29.978 18.458,-29.978 z"/></g></g></g><g id="g298" transform="translate(282.8135,418.6657)"><path style="fill:none;stroke:#622a82;stroke-width:.25;stroke-linecap:butt;stroke-linejoin:miter;stroke-miterlimit:1;stroke-dasharray:none;stroke-opacity:1" id="path300" d="M 0,0 18.459,29.979 36.917,0 Z"/></g></g></g></g></g></g></g></g></svg>