<svg xmlns="http://www.w3.org/2000/svg" xmlns:svg="http://www.w3.org/2000/svg" id="svg2" width="748.21" height="748.21" version="1.1" viewBox="0 0 748.21 748.21" xml:space="preserve"><metadata id="metadata8"/><defs id="defs6"><clipPath id="clipPath16" clipPathUnits="userSpaceOnUse"><path id="path18" d="m 377.992,256.318 12.131,8.412 20.734,43.444 -109.92,73.948 77.055,-125.804 z"/></clipPath><linearGradient id="linearGradient24" x1="0" x2="1" y1="0" y2="0" gradientTransform="matrix(109.92122,0,0,-109.92122,300.93652,319.22006)" gradientUnits="userSpaceOnUse" spreadMethod="pad"><stop style="stop-opacity:1;stop-color:#dd1865" id="stop26" offset="0"/><stop style="stop-opacity:1;stop-color:#642b80" id="stop28" offset="1"/></linearGradient><clipPath id="clipPath40" clipPathUnits="userSpaceOnUse"><path id="path42" d="m 410.857,308.174 -42.968,44.968 -66.952,28.98 109.92,-73.948 z"/></clipPath><linearGradient id="linearGradient46" x1="0" x2="1" y1="0" y2="0" gradientTransform="matrix(109.92122,0,0,-109.92122,300.93652,345.14822)" gradientUnits="userSpaceOnUse" spreadMethod="pad"><stop style="stop-opacity:1;stop-color:#dd1865" id="stop48" offset="0"/><stop style="stop-opacity:1;stop-color:#642b80" id="stop50" offset="1"/></linearGradient><clipPath id="clipPath62" clipPathUnits="userSpaceOnUse"><path id="path64" d="m 367.889,353.142 42.968,7.994 -109.92,20.986 66.952,-28.98 z"/></clipPath><linearGradient id="linearGradient68" x1="0" x2="1" y1="0" y2="0" gradientTransform="matrix(109.92122,0,0,-109.92122,300.93652,367.63211)" gradientUnits="userSpaceOnUse" spreadMethod="pad"><stop style="stop-opacity:1;stop-color:#dd1865" id="stop70" offset="0"/><stop style="stop-opacity:1;stop-color:#642b80" id="stop72" offset="1"/></linearGradient><clipPath id="clipPath84" clipPathUnits="userSpaceOnUse"><path id="path86" d="m 411.857,361.136 22.984,95.932 -133.904,-74.946 110.92,-20.986 z"/></clipPath><linearGradient id="linearGradient90" x1="0" x2="1" y1="0" y2="0" gradientTransform="matrix(133.90402,0,0,-133.90402,300.93652,409.10239)" gradientUnits="userSpaceOnUse" spreadMethod="pad"><stop style="stop-opacity:1;stop-color:#dd1865" id="stop92" offset="0"/><stop style="stop-opacity:1;stop-color:#642b80" id="stop94" offset="1"/></linearGradient><clipPath id="clipPath106" clipPathUnits="userSpaceOnUse"><path id="path108" d="m 434.841,457.068 -80.943,-14.989 -52.961,-59.957 133.904,74.946 z"/></clipPath><linearGradient id="linearGradient112" x1="0" x2="1" y1="0" y2="0" gradientTransform="matrix(133.90402,0,0,-133.90402,300.93652,419.59488)" gradientUnits="userSpaceOnUse" spreadMethod="pad"><stop style="stop-opacity:1;stop-color:#dd1865" id="stop114" offset="0"/><stop style="stop-opacity:1;stop-color:#642b80" id="stop116" offset="1"/></linearGradient><clipPath id="clipPath128" clipPathUnits="userSpaceOnUse"><path id="path130" d="m 272.397,335.771 28.493,0 0,-15.766 -39.531,-64.202 -38.056,0.915 49.094,79.053 z"/></clipPath><linearGradient id="linearGradient134" x1="0" x2="1" y1="0" y2="0" gradientTransform="matrix(-77.586571,0,0,-77.586571,300.88953,295.78754)" gradientUnits="userSpaceOnUse" spreadMethod="pad"><stop style="stop-opacity:1;stop-color:#dd1865" id="stop136" offset="0"/><stop style="stop-opacity:1;stop-color:#642b80" id="stop138" offset="1"/></linearGradient><clipPath id="clipPath150" clipPathUnits="userSpaceOnUse"><path id="path152" d="m 329.327,335.771 -28.437,0 0,-15.766 39.576,-64.202 37.526,0.515 -48.665,79.453 z"/></clipPath><linearGradient id="linearGradient156" x1="0" x2="1" y1="0" y2="0" gradientTransform="matrix(77.103111,0,0,-77.103111,300.88953,295.78754)" gradientUnits="userSpaceOnUse" spreadMethod="pad"><stop style="stop-opacity:1;stop-color:#dd1865" id="stop158" offset="0"/><stop style="stop-opacity:1;stop-color:#642b80" id="stop160" offset="1"/></linearGradient><clipPath id="clipPath172" clipPathUnits="userSpaceOnUse"><path id="path174" d="m 223.303,256.718 -11.553,8.012 -20.734,43.444 109.921,73.948 -77.634,-125.404 z"/></clipPath><linearGradient id="linearGradient178" x1="0" x2="1" y1="0" y2="0" gradientTransform="matrix(-109.92122,0,0,-109.92122,300.93652,319.42026)" gradientUnits="userSpaceOnUse" spreadMethod="pad"><stop style="stop-opacity:1;stop-color:#dd1865" id="stop180" offset="0"/><stop style="stop-opacity:1;stop-color:#642b80" id="stop182" offset="1"/></linearGradient><clipPath id="clipPath194" clipPathUnits="userSpaceOnUse"><path id="path196" d="m 191.016,308.174 42.968,44.968 66.953,28.98 -109.921,-73.948 z"/></clipPath><linearGradient id="linearGradient200" x1="0" x2="1" y1="0" y2="0" gradientTransform="matrix(-109.92122,0,0,-109.92122,300.93652,345.14822)" gradientUnits="userSpaceOnUse" spreadMethod="pad"><stop style="stop-opacity:1;stop-color:#dd1865" id="stop202" offset="0"/><stop style="stop-opacity:1;stop-color:#642b80" id="stop204" offset="1"/></linearGradient><clipPath id="clipPath216" clipPathUnits="userSpaceOnUse"><path id="path218" d="m 233.984,353.142 -42.968,7.994 109.921,20.986 -66.953,-28.98 z"/></clipPath><linearGradient id="linearGradient222" x1="0" x2="1" y1="0" y2="0" gradientTransform="matrix(-109.92122,0,0,-109.92122,300.93652,367.63211)" gradientUnits="userSpaceOnUse" spreadMethod="pad"><stop style="stop-opacity:1;stop-color:#dd1865" id="stop224" offset="0"/><stop style="stop-opacity:1;stop-color:#642b80" id="stop226" offset="1"/></linearGradient><clipPath id="clipPath238" clipPathUnits="userSpaceOnUse"><path id="path240" d="M 190.016,361.136 167.032,457.068 300.937,382.122 190.016,361.136 Z"/></clipPath><linearGradient id="linearGradient244" x1="0" x2="1" y1="0" y2="0" gradientTransform="matrix(-133.90402,0,0,-133.90402,300.93652,409.10239)" gradientUnits="userSpaceOnUse" spreadMethod="pad"><stop style="stop-opacity:1;stop-color:#dd1865" id="stop246" offset="0"/><stop style="stop-opacity:1;stop-color:#642b80" id="stop248" offset="1"/></linearGradient><clipPath id="clipPath260" clipPathUnits="userSpaceOnUse"><path id="path262" d="m 167.032,457.068 80.943,-14.989 52.962,-59.957 -133.905,74.946 z"/></clipPath><linearGradient id="linearGradient266" x1="0" x2="1" y1="0" y2="0" gradientTransform="matrix(-133.90402,0,0,-133.90402,300.93652,419.59488)" gradientUnits="userSpaceOnUse" spreadMethod="pad"><stop style="stop-opacity:1;stop-color:#dd1865" id="stop268" offset="0"/><stop style="stop-opacity:1;stop-color:#642b80" id="stop270" offset="1"/></linearGradient><clipPath id="clipPath282" clipPathUnits="userSpaceOnUse"><path id="path284" d="m 282.813,418.666 18.459,29.978 18.458,-29.978 -36.917,0 z"/></clipPath><linearGradient id="linearGradient288" x1="0" x2="1" y1="0" y2="0" gradientTransform="matrix(0.0798139,-26.215998,-26.215998,-0.0798139,301.19751,443.21231)" gradientUnits="userSpaceOnUse" spreadMethod="pad"><stop style="stop-opacity:1;stop-color:#dd1865" id="stop290" offset="0"/><stop style="stop-opacity:1;stop-color:#922676" id="stop292" offset=".584"/><stop style="stop-opacity:1;stop-color:#642b80" id="stop294" offset="1"/></linearGradient><clipPath id="clipPath306" clipPathUnits="userSpaceOnUse"><path id="path308" d="m 0,598.568 598.568,0 L 598.568,0 0,0 0,598.568 Z"/></clipPath></defs><g id="g10" transform="matrix(1.25,0,0,-1.25,0,748.21)"><g id="g4220"><g id="g4101" transform="translate(-1.6524912,0)"><g id="g12"><g id="g14" clip-path="url(#clipPath16)"><g id="g20"><g id="g22"><path style="fill:url(#linearGradient24);stroke:none" id="path30" d="m 377.992,256.318 12.131,8.412 20.734,43.444 -109.92,73.948 77.055,-125.804 z"/></g></g></g></g><g id="g32" transform="translate(377.9922,256.318)"><path style="fill:none;stroke:#622a82;stroke-width:.25;stroke-linecap:butt;stroke-linejoin:miter;stroke-miterlimit:1;stroke-dasharray:none;stroke-opacity:1" id="path34" d="M 0,0 12.131,8.412 32.865,51.856 -77.056,125.804 0,0 Z"/></g><g id="g36"><g id="g38" clip-path="url(#clipPath40)"><g id="g44"><path style="fill:url(#linearGradient46);stroke:none" id="path52" d="m 410.857,308.174 -42.968,44.968 -66.952,28.98 109.92,-73.948 z"/></g></g></g><g id="g54" transform="translate(410.8574,308.1745)"><path style="fill:none;stroke:#622a82;stroke-width:.25;stroke-linecap:butt;stroke-linejoin:miter;stroke-miterlimit:1;stroke-dasharray:none;stroke-opacity:1" id="path56" d="M 0,0 -42.969,44.968 -109.921,73.947 0,0 Z"/></g><g id="g58"><g id="g60" clip-path="url(#clipPath62)"><g id="g66"><path style="fill:url(#linearGradient68);stroke:none" id="path74" d="m 367.889,353.142 42.968,7.994 -109.92,20.986 66.952,-28.98 z"/></g></g></g><g id="g76" transform="translate(367.8887,353.1422)"><path style="fill:none;stroke:#622a82;stroke-width:.25;stroke-linecap:butt;stroke-linejoin:miter;stroke-miterlimit:1;stroke-dasharray:none;stroke-opacity:1" id="path78" d="M 0,0 42.969,7.994 -66.952,28.979 0,0 Z"/></g><g id="g80"><g id="g82" clip-path="url(#clipPath84)"><g id="g88"><path style="fill:url(#linearGradient90);stroke:none" id="path96" d="m 411.857,361.136 22.984,95.932 -133.904,-74.946 110.92,-20.986 z"/></g></g></g><g id="g98" transform="translate(411.8574,361.1364)"><path style="fill:none;stroke:#622a82;stroke-width:.25;stroke-linecap:butt;stroke-linejoin:miter;stroke-miterlimit:1;stroke-dasharray:none;stroke-opacity:1" id="path100" d="M 0,0 22.983,95.932 -110.921,20.985 0,0 Z"/></g><g id="g102"><g id="g104" clip-path="url(#clipPath106)"><g id="g110"><path style="fill:url(#linearGradient112);stroke:none" id="path118" d="m 434.841,457.068 -80.943,-14.989 -52.961,-59.957 133.904,74.946 z"/></g></g></g><g id="g120" transform="translate(434.8408,457.068)"><path style="fill:none;stroke:#622a82;stroke-width:.25;stroke-linecap:butt;stroke-linejoin:miter;stroke-miterlimit:1;stroke-dasharray:none;stroke-opacity:1" id="path122" d="M 0,0 -80.942,-14.989 -133.904,-74.946 0,0 Z"/></g><g id="g124"><g id="g126" clip-path="url(#clipPath128)"><g id="g132"><path style="fill:url(#linearGradient134);stroke:none" id="path140" d="m 272.397,335.771 28.493,0 0,-15.766 -39.531,-64.202 -38.056,0.915 49.094,79.053 z"/></g></g></g><g id="g142" transform="translate(272.3975,335.7711)"><path style="fill:none;stroke:#622a82;stroke-width:.25;stroke-linecap:butt;stroke-linejoin:miter;stroke-miterlimit:1;stroke-dasharray:none;stroke-opacity:1" id="path144" d="m 0,0 28.492,0 0,-15.767 -39.53,-64.201 -38.057,0.915 L 0,0 Z"/></g><g id="g146"><g id="g148" clip-path="url(#clipPath150)"><g id="g154"><path style="fill:url(#linearGradient156);stroke:none" id="path162" d="m 329.327,335.771 -28.437,0 0,-15.766 39.576,-64.202 37.526,0.515 -48.665,79.453 z"/></g></g></g><g id="g164" transform="translate(329.3271,335.7711)"><path style="fill:none;stroke:#622a82;stroke-width:.25;stroke-linecap:butt;stroke-linejoin:miter;stroke-miterlimit:1;stroke-dasharray:none;stroke-opacity:1" id="path166" d="m 0,0 -28.437,0 0,-15.767 39.576,-64.201 37.526,0.515 L 0,0 Z"/></g><g id="g168"><g id="g170" clip-path="url(#clipPath172)"><g id="g176"><path style="fill:url(#linearGradient178);stroke:none" id="path184" d="m 223.303,256.718 -11.553,8.012 -20.734,43.444 109.921,73.948 -77.634,-125.404 z"/></g></g></g><g id="g186" transform="translate(223.3027,256.7184)"><path style="fill:none;stroke:#622a82;stroke-width:.25;stroke-linecap:butt;stroke-linejoin:miter;stroke-miterlimit:1;stroke-dasharray:none;stroke-opacity:1" id="path188" d="M 0,0 -11.553,8.012 -32.287,51.456 77.634,125.403 0,0 Z"/></g><g id="g190"><g id="g192" clip-path="url(#clipPath194)"><g id="g198"><path style="fill:url(#linearGradient200);stroke:none" id="path206" d="m 191.016,308.174 42.968,44.968 66.953,28.98 -109.921,-73.948 z"/></g></g></g><g id="g208" transform="translate(191.0156,308.1745)"><path style="fill:none;stroke:#622a82;stroke-width:.25;stroke-linecap:butt;stroke-linejoin:miter;stroke-miterlimit:1;stroke-dasharray:none;stroke-opacity:1" id="path210" d="M 0,0 42.969,44.968 109.921,73.947 0,0 Z"/></g><g id="g212"><g id="g214" clip-path="url(#clipPath216)"><g id="g220"><path style="fill:url(#linearGradient222);stroke:none" id="path228" d="m 233.984,353.142 -42.968,7.994 109.921,20.986 -66.953,-28.98 z"/></g></g></g><g id="g230" transform="translate(233.9844,353.1422)"><path style="fill:none;stroke:#622a82;stroke-width:.25;stroke-linecap:butt;stroke-linejoin:miter;stroke-miterlimit:1;stroke-dasharray:none;stroke-opacity:1" id="path232" d="M 0,0 -42.969,7.994 66.952,28.979 0,0 Z"/></g><g id="g234"><g id="g236" clip-path="url(#clipPath238)"><g id="g242"><path style="fill:url(#linearGradient244);stroke:none" id="path250" d="M 190.016,361.136 167.032,457.068 300.937,382.122 190.016,361.136 Z"/></g></g></g><g id="g252" transform="translate(190.0156,361.1364)"><path style="fill:none;stroke:#622a82;stroke-width:.25;stroke-linecap:butt;stroke-linejoin:miter;stroke-miterlimit:1;stroke-dasharray:none;stroke-opacity:1" id="path254" d="M 0,0 -22.983,95.932 110.921,20.985 0,0 Z"/></g><g id="g256"><g id="g258" clip-path="url(#clipPath260)"><g id="g264"><path style="fill:url(#linearGradient266);stroke:none" id="path272" d="m 167.032,457.068 80.943,-14.989 52.962,-59.957 -133.905,74.946 z"/></g></g></g><g id="g274" transform="translate(167.0322,457.068)"><path style="fill:none;stroke:#622a82;stroke-width:.25;stroke-linecap:butt;stroke-linejoin:miter;stroke-miterlimit:1;stroke-dasharray:none;stroke-opacity:1" id="path276" d="M 0,0 80.942,-14.989 133.904,-74.946 0,0 Z"/></g><g id="g278"><g id="g280" clip-path="url(#clipPath282)"><g id="g286"><path style="fill:url(#linearGradient288);stroke:none" id="path296" d="m 282.813,418.666 18.459,29.978 18.458,-29.978 -36.917,0 z"/></g></g></g><g id="g298" transform="translate(282.8135,418.6657)"><path style="fill:none;stroke:#622a82;stroke-width:.25;stroke-linecap:butt;stroke-linejoin:miter;stroke-miterlimit:1;stroke-dasharray:none;stroke-opacity:1" id="path300" d="M 0,0 18.459,29.979 36.917,0 0,0 Z"/></g></g><g id="g4021" transform="translate(-6.4775912,28.8)"><g id="g3941" transform="translate(-0.7701,0)"><g id="g310" transform="translate(187.1924,179.6764)"><path id="path312" d="m 0,0 c 1.031,-0.422 2.343,-0.655 3.607,-0.655 3.888,0 6.511,2.856 6.511,7.447 0,3.701 -1.967,6.277 -5.48,6.277 C 2.857,13.069 1.031,12.414 0,11.617 L 0,0 Z M -6.979,30.964 0,31.854 0,16.302 c 1.405,1.358 3.842,2.67 6.887,2.67 6.276,0 10.399,-4.732 10.399,-11.805 0,-7.963 -5.762,-13.397 -13.585,-13.397 -3.842,0 -7.307,0.703 -10.68,2.295 l 0,34.899 z" style="fill:#622a82;fill-opacity:1;fill-rule:nonzero;stroke:none"/></g><g id="g314" transform="translate(237.1738,174.5241)"><path id="path316" d="m 0,0 -7.026,-0.984 0,2.577 c -1.499,-1.219 -4.03,-2.671 -7.355,-2.671 -5.059,0 -8.198,3.467 -8.198,8.386 l 0,16.301 7.026,0 0,-14.616 c 0,-2.576 1.078,-4.169 3.842,-4.169 1.874,0 3.279,0.563 4.685,1.359 l 0,17.426 7.026,0 L 0,0 Z" style="fill:#622a82;fill-opacity:1;fill-rule:nonzero;stroke:none"/></g><g id="g318" transform="translate(250.2871,198.1335)"><path id="path320" d="m 0,0 0,5.012 7.027,0.937 0,-5.949 8.151,0 -0.843,-5.247 -7.308,0 0,-10.446 c 0,-2.202 1.359,-3.139 3.28,-3.139 2.013,0 3.372,0.234 5.527,1.171 l 0,-5.621 c -2.062,-0.937 -4.169,-1.359 -6.887,-1.359 -4.918,0 -8.947,2.437 -8.947,8.105 l 0,11.289 -3.278,0 0,5.247 L 0,0 Z" style="fill:#622a82;fill-opacity:1;fill-rule:nonzero;stroke:none"/></g><g id="g322" transform="translate(277.3623,198.1335)"><path id="path324" d="m 0,0 0,5.012 7.027,0.937 0,-5.949 8.151,0 -0.843,-5.247 -7.308,0 0,-10.446 c 0,-2.202 1.359,-3.139 3.279,-3.139 2.014,0 3.373,0.234 5.528,1.171 l 0,-5.621 c -2.062,-0.937 -4.169,-1.359 -6.887,-1.359 -4.918,0 -8.947,2.437 -8.947,8.105 l 0,11.289 -3.278,0 0,5.247 L 0,0 Z" style="fill:#622a82;fill-opacity:1;fill-rule:nonzero;stroke:none"/></g><g id="g326" transform="translate(308.5596,188.5299)"><path id="path328" d="m 0,0 9.556,0 0,0.187 c 0,2.436 -1.359,4.638 -4.31,4.638 C 2.67,4.825 0.608,3.139 0,0 m 7.12,-15.084 c -8.151,0 -13.772,5.153 -13.772,12.602 0,7.213 5.106,12.6 12.132,12.6 7.402,0 10.775,-5.527 10.775,-12.133 0,-0.608 0,-1.311 -0.094,-1.966 l -16.114,0 c 0.843,-3.655 4.169,-5.434 8.15,-5.434 2.062,0 4.169,0.28 6.746,1.451 l 0,-5.433 c -2.342,-1.171 -4.778,-1.687 -7.823,-1.687" style="fill:#622a82;fill-opacity:1;fill-rule:nonzero;stroke:none"/></g><g id="g330" transform="translate(335.3525,173.9616)"><path id="path332" d="m 0,0 0,23.609 6.979,0.984 0,-4.216 c 2.25,2.576 4.966,4.731 9.182,4.122 l 0,-7.026 c -3.607,0.89 -7.167,-0.235 -9.182,-2.53 L 6.979,0 0,0 Z" style="fill:#622a82;fill-opacity:1;fill-rule:nonzero;stroke:none"/></g><g id="g334" transform="translate(369.7344,173.9616)"><path id="path336" d="m 0,0 -7.026,0 0,18.925 -3.233,0 0,5.247 3.233,0 0,1.358 c 0,7.167 4.45,12.039 11.898,12.039 1.452,0 2.717,-0.187 4.169,-0.656 l 0,-5.48 C 7.776,31.761 7.027,31.854 5.903,31.854 2.062,31.854 0,29.605 0,25.718 l 0,-1.546 6.98,0 L 6.137,18.925 0,18.925 0,0 Z" style="fill:#622a82;fill-opacity:1;fill-rule:nonzero;stroke:none"/></g><g id="g338" transform="translate(390.5508,210.6403)"><path id="path340" d="m 0,0 6.979,0.891 0,-37.57 -6.979,0 L 0,0 Z" style="fill:#622a82;fill-opacity:1;fill-rule:nonzero;stroke:none"/></g><g id="g342" transform="translate(406.71,198.1335)"><path id="path344" d="M 0,0 7.589,0 13.538,-14.522 19.347,0 26.14,0 15.459,-23.937 c -3.748,-8.479 -7.73,-11.431 -13.538,-11.431 -0.984,0 -2.108,0.187 -2.717,0.422 l 0,5.574 c 0.702,-0.233 1.639,-0.374 2.342,-0.374 3.701,0 5.808,1.92 8.385,7.963 L 0,0 Z" style="fill:#622a82;fill-opacity:1;fill-rule:nonzero;stroke:none"/></g></g><g id="g3961" transform="translate(1.15865,14.4)"><g id="g346" transform="translate(184.0342,134.194)"><path id="path348" d="M 0,0 0,2.268 C -2.426,2.18 -3.621,1.564 -3.621,0.387 c 0,-0.721 0.545,-1.178 1.389,-1.178 0.843,0 1.511,0.299 2.232,0.791 M 0.176,-1.951 0,-1.002 c -0.686,-0.615 -1.617,-1.143 -2.76,-1.143 -1.459,0 -2.601,0.915 -2.601,2.409 0,1.845 1.687,3.058 5.361,3.164 l 0,0.527 c 0,1.072 -0.58,1.74 -1.881,1.74 -1.002,0 -2.004,-0.316 -2.971,-0.879 l 0,1.547 c 0.827,0.545 2.11,0.897 3.147,0.897 2.461,0 3.516,-1.371 3.516,-3.217 l 0,-4.201 c 0,-0.862 0.052,-1.231 0.175,-1.793 l -1.81,0 z" style="fill:#622a82;fill-opacity:1;fill-rule:nonzero;stroke:none"/></g><g id="g350" transform="translate(190.292,133.9831)"><path id="path352" d="m 0,0 c 0.475,-0.352 1.23,-0.492 1.811,-0.492 1.828,0 2.97,1.406 2.97,3.463 0,1.828 -0.967,2.935 -2.478,2.935 C 1.389,5.906 0.51,5.555 0,5.133 L 0,0 Z m -1.811,-5.748 0,12.85 L 0,7.4 0,6.416 c 0.545,0.492 1.564,1.055 2.725,1.055 2.337,0 3.92,-1.67 3.92,-4.43 0,-2.988 -2.075,-4.975 -4.659,-4.975 -0.703,0 -1.494,0.159 -1.986,0.44 l 0,-4.254 -1.811,0 z" style="fill:#622a82;fill-opacity:1;fill-rule:nonzero;stroke:none"/></g><g id="g354" transform="translate(200.751,133.9831)"><path id="path356" d="m 0,0 c 0.475,-0.352 1.23,-0.492 1.811,-0.492 1.828,0 2.97,1.406 2.97,3.463 0,1.828 -0.967,2.935 -2.478,2.935 C 1.389,5.906 0.51,5.555 0,5.133 L 0,0 Z m -1.811,-5.748 0,12.85 L 0,7.4 0,6.416 c 0.545,0.492 1.564,1.055 2.725,1.055 2.337,0 3.92,-1.67 3.92,-4.43 0,-2.988 -2.075,-4.975 -4.659,-4.975 -0.703,0 -1.494,0.159 -1.986,0.44 l 0,-4.254 -1.811,0 z" style="fill:#622a82;fill-opacity:1;fill-rule:nonzero;stroke:none"/></g><g id="g358" transform="translate(209.3994,146.0768)"><path id="path360" d="m 0,0 1.811,0.264 0,-14.098 -1.811,0 L 0,0 Z" style="fill:#622a82;fill-opacity:1;fill-rule:nonzero;stroke:none"/></g><g id="g362" transform="translate(213.9873,141.0846)"><path id="path364" d="m 0,0 1.811,0.299 0,-9.141 L 0,-8.842 0,0 Z m 0.914,4.658 c 0.668,0 1.16,-0.51 1.16,-1.142 0,-0.633 -0.492,-1.143 -1.16,-1.143 -0.668,0 -1.16,0.51 -1.16,1.143 0,0.632 0.492,1.142 1.16,1.142" style="fill:#622a82;fill-opacity:1;fill-rule:nonzero;stroke:none"/></g><g id="g366" transform="translate(222.5654,141.4538)"><path id="path368" d="m 0,0 c 0.598,0 1.318,-0.123 1.898,-0.387 l 0,-1.599 c -0.597,0.299 -1.195,0.404 -1.828,0.404 -1.652,0 -3.023,-1.195 -3.023,-3.147 0,-1.898 1.371,-3.093 3.023,-3.093 0.633,0 1.284,0.14 1.881,0.422 l 0,-1.618 C 1.389,-9.264 0.598,-9.404 0,-9.404 c -2.672,0 -4.729,1.916 -4.729,4.675 C -4.729,-1.916 -2.672,0 0,0" style="fill:#622a82;fill-opacity:1;fill-rule:nonzero;stroke:none"/></g><g id="g370" transform="translate(231.4248,134.194)"><path id="path372" d="M 0,0 0,2.268 C -2.426,2.18 -3.621,1.564 -3.621,0.387 c 0,-0.721 0.545,-1.178 1.389,-1.178 0.843,0 1.511,0.299 2.232,0.791 M 0.176,-1.951 0,-1.002 c -0.686,-0.615 -1.617,-1.143 -2.76,-1.143 -1.459,0 -2.601,0.915 -2.601,2.409 0,1.845 1.687,3.058 5.361,3.164 l 0,0.527 c 0,1.072 -0.58,1.74 -1.881,1.74 -1.002,0 -2.004,-0.316 -2.971,-0.879 l 0,1.547 c 0.827,0.545 2.11,0.897 3.147,0.897 2.461,0 3.516,-1.371 3.516,-3.217 l 0,-4.201 c 0,-0.862 0.052,-1.231 0.175,-1.793 l -1.81,0 z" style="fill:#622a82;fill-opacity:1;fill-rule:nonzero;stroke:none"/></g><g id="g374" transform="translate(236.1357,141.2604)"><path id="path376" d="m 0,0 0,1.951 1.828,0.281 0,-2.232 3.129,0 -0.246,-1.406 -2.883,0 0,-4.817 c 0,-0.966 0.598,-1.406 1.424,-1.406 0.721,0 1.283,0.07 2.092,0.404 l 0,-1.494 C 4.641,-9.053 3.85,-9.193 3.006,-9.193 1.424,-9.193 0,-8.42 0,-6.434 l 0,5.028 -1.318,0 0,1.406 L 0,0 Z" style="fill:#622a82;fill-opacity:1;fill-rule:nonzero;stroke:none"/></g><g id="g378" transform="translate(243.3428,141.0846)"><path id="path380" d="m 0,0 1.811,0.299 0,-9.141 L 0,-8.842 0,0 Z m 0.914,4.658 c 0.668,0 1.16,-0.51 1.16,-1.142 0,-0.633 -0.492,-1.143 -1.16,-1.143 -0.668,0 -1.16,0.51 -1.16,1.143 0,0.632 0.492,1.142 1.16,1.142" style="fill:#622a82;fill-opacity:1;fill-rule:nonzero;stroke:none"/></g><g id="g382" transform="translate(251.5518,139.8893)"><path id="path384" d="m 0,0 c -1.582,0 -2.584,-1.318 -2.584,-3.146 0,-1.811 1.002,-3.129 2.584,-3.129 1.582,0 2.602,1.318 2.602,3.129 C 2.602,-1.318 1.582,0 0,0 m 0,1.564 c 2.391,0 4.395,-1.898 4.395,-4.71 0,-2.795 -2.004,-4.694 -4.395,-4.694 -2.373,0 -4.377,1.899 -4.377,4.694 0,2.812 2.004,4.71 4.377,4.71" style="fill:#622a82;fill-opacity:1;fill-rule:nonzero;stroke:none"/></g><g id="g386" transform="translate(259.7783,141.3835)"><path id="path388" d="M 0,0 0,-1.002 C 0.615,-0.527 1.74,0.07 3.059,0.07 5.062,0.07 6.1,-1.143 6.1,-2.988 l 0,-6.153 -1.829,0 0,5.696 c 0,1.213 -0.474,1.933 -1.828,1.933 -0.984,0 -1.722,-0.299 -2.443,-0.756 l 0,-6.873 -1.811,0 0,8.842 L 0,0 Z" style="fill:#622a82;fill-opacity:1;fill-rule:nonzero;stroke:none"/></g><g id="g390" transform="translate(273.3135,141.2604)"><path id="path392" d="m 0,0 0,1.951 1.828,0.281 0,-2.232 3.129,0 -0.246,-1.406 -2.883,0 0,-4.817 c 0,-0.966 0.598,-1.406 1.424,-1.406 0.721,0 1.283,0.07 2.092,0.404 l 0,-1.494 C 4.641,-9.053 3.85,-9.193 3.006,-9.193 1.424,-9.193 0,-8.42 0,-6.434 l 0,5.028 -1.318,0 0,1.406 L 0,0 Z" style="fill:#622a82;fill-opacity:1;fill-rule:nonzero;stroke:none"/></g><g id="g394" transform="translate(280.5205,132.2428)"><path id="path396" d="m 0,0 0,8.842 1.811,0.299 0,-1.582 c 0.808,0.966 1.968,1.81 3.568,1.564 l 0,-1.828 C 3.92,7.611 2.672,7.066 1.811,6.135 L 1.811,0 0,0 Z" style="fill:#622a82;fill-opacity:1;fill-rule:nonzero;stroke:none"/></g><g id="g398" transform="translate(292.2451,134.194)"><path id="path400" d="M 0,0 0,2.268 C -2.426,2.18 -3.621,1.564 -3.621,0.387 c 0,-0.721 0.545,-1.178 1.389,-1.178 0.843,0 1.511,0.299 2.232,0.791 M 0.176,-1.951 0,-1.002 c -0.686,-0.615 -1.617,-1.143 -2.76,-1.143 -1.459,0 -2.601,0.915 -2.601,2.409 0,1.845 1.687,3.058 5.361,3.164 l 0,0.527 c 0,1.072 -0.58,1.74 -1.881,1.74 -1.002,0 -2.004,-0.316 -2.971,-0.879 l 0,1.547 c 0.827,0.545 2.11,0.897 3.147,0.897 2.461,0 3.516,-1.371 3.516,-3.217 l 0,-4.201 c 0,-0.862 0.052,-1.231 0.175,-1.793 l -1.81,0 z" style="fill:#622a82;fill-opacity:1;fill-rule:nonzero;stroke:none"/></g><g id="g402" transform="translate(298.5029,141.3835)"><path id="path404" d="M 0,0 0,-1.002 C 0.615,-0.527 1.74,0.07 3.059,0.07 5.062,0.07 6.1,-1.143 6.1,-2.988 l 0,-6.153 -1.829,0 0,5.696 c 0,1.213 -0.474,1.933 -1.828,1.933 -0.984,0 -1.722,-0.299 -2.443,-0.756 l 0,-6.873 -1.811,0 0,8.842 L 0,0 Z" style="fill:#622a82;fill-opacity:1;fill-rule:nonzero;stroke:none"/></g><g id="g406" transform="translate(306.5889,134.3698)"><path id="path408" d="m 0,0 c 0.967,-0.65 2.021,-0.879 2.953,-0.879 1.02,0 1.758,0.457 1.758,1.195 0,1.705 -4.395,1.125 -4.395,4.096 0,1.529 1.354,2.672 3.252,2.672 0.932,0 1.67,-0.193 2.409,-0.527 l 0,-1.6 C 5.203,5.414 4.43,5.643 3.691,5.643 2.707,5.643 2.092,5.168 2.092,4.482 2.092,2.795 6.504,3.34 6.504,0.439 6.504,-1.301 4.887,-2.32 2.971,-2.32 1.775,-2.32 0.703,-2.039 0,-1.635 L 0,0 Z" style="fill:#622a82;fill-opacity:1;fill-rule:nonzero;stroke:none"/></g><g id="g410" transform="translate(317.4521,132.2428)"><path id="path412" d="m 0,0 -1.811,0 0,7.611 -1.283,0 0,1.407 1.283,0 0,0.72 c 0,2.725 1.618,4.36 4.114,4.36 0.492,0 0.896,-0.053 1.406,-0.211 l 0,-1.459 C 3.217,12.568 2.918,12.586 2.479,12.586 0.879,12.586 0,11.602 0,9.773 l 0,-0.755 2.865,0 L 2.602,7.611 0,7.611 0,0 Z" style="fill:#622a82;fill-opacity:1;fill-rule:nonzero;stroke:none"/></g><g id="g414" transform="translate(325.0811,139.8893)"><path id="path416" d="m 0,0 c -1.582,0 -2.584,-1.318 -2.584,-3.146 0,-1.811 1.002,-3.129 2.584,-3.129 1.582,0 2.602,1.318 2.602,3.129 C 2.602,-1.318 1.582,0 0,0 m 0,1.564 c 2.391,0 4.395,-1.898 4.395,-4.71 0,-2.795 -2.004,-4.694 -4.395,-4.694 -2.373,0 -4.377,1.899 -4.377,4.694 0,2.812 2.004,4.71 4.377,4.71" style="fill:#622a82;fill-opacity:1;fill-rule:nonzero;stroke:none"/></g><g id="g418" transform="translate(331.4971,132.2428)"><path id="path420" d="m 0,0 0,8.842 1.811,0.299 0,-1.582 c 0.808,0.966 1.968,1.81 3.568,1.564 l 0,-1.828 C 3.92,7.611 2.672,7.066 1.811,6.135 L 1.811,0 0,0 Z" style="fill:#622a82;fill-opacity:1;fill-rule:nonzero;stroke:none"/></g><g id="g422" transform="translate(338.5811,132.2428)"><path id="path424" d="m 0,0 0,8.842 1.811,0.299 0,-0.985 c 0.562,0.475 1.687,1.055 2.918,1.055 1.177,0 2.003,-0.475 2.478,-1.266 0.633,0.545 1.863,1.266 3.322,1.266 1.881,0 2.918,-1.213 2.918,-3.059 l 0,-6.152 -1.81,0 0,5.695 c 0,1.213 -0.44,1.934 -1.723,1.934 C 8.982,7.629 8.262,7.312 7.576,6.82 7.611,6.609 7.629,6.381 7.629,6.152 l 0,-6.152 -1.811,0 0,5.695 C 5.818,6.908 5.379,7.629 4.096,7.629 3.182,7.629 2.479,7.33 1.811,6.873 L 1.811,0 0,0 Z" style="fill:#622a82;fill-opacity:1;fill-rule:nonzero;stroke:none"/></g><g id="g426" transform="translate(359.3936,134.194)"><path id="path428" d="M 0,0 0,2.268 C -2.426,2.18 -3.621,1.564 -3.621,0.387 c 0,-0.721 0.545,-1.178 1.389,-1.178 0.843,0 1.511,0.299 2.232,0.791 M 0.176,-1.951 0,-1.002 c -0.686,-0.615 -1.617,-1.143 -2.76,-1.143 -1.459,0 -2.601,0.915 -2.601,2.409 0,1.845 1.687,3.058 5.361,3.164 l 0,0.527 c 0,1.072 -0.58,1.74 -1.881,1.74 -1.002,0 -2.004,-0.316 -2.971,-0.879 l 0,1.547 c 0.827,0.545 2.11,0.897 3.147,0.897 2.461,0 3.516,-1.371 3.516,-3.217 l 0,-4.201 c 0,-0.862 0.052,-1.231 0.175,-1.793 l -1.81,0 z" style="fill:#622a82;fill-opacity:1;fill-rule:nonzero;stroke:none"/></g><g id="g430" transform="translate(364.1045,141.2604)"><path id="path432" d="m 0,0 0,1.951 1.828,0.281 0,-2.232 3.129,0 -0.246,-1.406 -2.883,0 0,-4.817 c 0,-0.966 0.598,-1.406 1.424,-1.406 0.721,0 1.283,0.07 2.092,0.404 l 0,-1.494 C 4.641,-9.053 3.85,-9.193 3.006,-9.193 1.424,-9.193 0,-8.42 0,-6.434 l 0,5.028 -1.318,0 0,1.406 L 0,0 Z" style="fill:#622a82;fill-opacity:1;fill-rule:nonzero;stroke:none"/></g><g id="g434" transform="translate(371.3115,141.0846)"><path id="path436" d="m 0,0 1.811,0.299 0,-9.141 L 0,-8.842 0,0 Z m 0.914,4.658 c 0.668,0 1.16,-0.51 1.16,-1.142 0,-0.633 -0.492,-1.143 -1.16,-1.143 -0.668,0 -1.16,0.51 -1.16,1.143 0,0.632 0.492,1.142 1.16,1.142" style="fill:#622a82;fill-opacity:1;fill-rule:nonzero;stroke:none"/></g><g id="g438" transform="translate(379.5205,139.8893)"><path id="path440" d="m 0,0 c -1.582,0 -2.584,-1.318 -2.584,-3.146 0,-1.811 1.002,-3.129 2.584,-3.129 1.582,0 2.602,1.318 2.602,3.129 C 2.602,-1.318 1.582,0 0,0 m 0,1.564 c 2.391,0 4.395,-1.898 4.395,-4.71 0,-2.795 -2.004,-4.694 -4.395,-4.694 -2.373,0 -4.377,1.899 -4.377,4.694 0,2.812 2.004,4.71 4.377,4.71" style="fill:#622a82;fill-opacity:1;fill-rule:nonzero;stroke:none"/></g><g id="g442" transform="translate(387.7471,141.3835)"><path id="path444" d="M 0,0 0,-1.002 C 0.615,-0.527 1.74,0.07 3.059,0.07 5.062,0.07 6.1,-1.143 6.1,-2.988 l 0,-6.153 -1.829,0 0,5.696 c 0,1.213 -0.474,1.933 -1.828,1.933 -0.984,0 -1.722,-0.299 -2.443,-0.756 l 0,-6.873 -1.811,0 0,8.842 L 0,0 Z" style="fill:#622a82;fill-opacity:1;fill-rule:nonzero;stroke:none"/></g><g id="g446" transform="translate(401.2822,141.2604)"><path id="path448" d="m 0,0 0,1.951 1.828,0.281 0,-2.232 3.129,0 -0.246,-1.406 -2.883,0 0,-4.817 c 0,-0.966 0.598,-1.406 1.424,-1.406 0.721,0 1.283,0.07 2.092,0.404 l 0,-1.494 C 4.641,-9.053 3.85,-9.193 3.006,-9.193 1.424,-9.193 0,-8.42 0,-6.434 l 0,5.028 -1.318,0 0,1.406 L 0,0 Z" style="fill:#622a82;fill-opacity:1;fill-rule:nonzero;stroke:none"/></g><g id="g450" transform="translate(412.1104,139.8893)"><path id="path452" d="m 0,0 c -1.582,0 -2.584,-1.318 -2.584,-3.146 0,-1.811 1.002,-3.129 2.584,-3.129 1.582,0 2.602,1.318 2.602,3.129 C 2.602,-1.318 1.582,0 0,0 m 0,1.564 c 2.391,0 4.395,-1.898 4.395,-4.71 0,-2.795 -2.004,-4.694 -4.395,-4.694 -2.373,0 -4.377,1.899 -4.377,4.694 0,2.812 2.004,4.71 4.377,4.71" style="fill:#622a82;fill-opacity:1;fill-rule:nonzero;stroke:none"/></g><g id="g454" transform="translate(422.3057,139.8893)"><path id="path456" d="m 0,0 c -1.582,0 -2.584,-1.318 -2.584,-3.146 0,-1.811 1.002,-3.129 2.584,-3.129 1.582,0 2.602,1.318 2.602,3.129 C 2.602,-1.318 1.582,0 0,0 m 0,1.564 c 2.391,0 4.395,-1.898 4.395,-4.71 0,-2.795 -2.004,-4.694 -4.395,-4.694 -2.373,0 -4.377,1.899 -4.377,4.694 0,2.812 2.004,4.71 4.377,4.71" style="fill:#622a82;fill-opacity:1;fill-rule:nonzero;stroke:none"/></g><g id="g458" transform="translate(428.7217,146.0768)"><path id="path460" d="m 0,0 1.811,0.264 0,-14.098 -1.811,0 L 0,0 Z" style="fill:#622a82;fill-opacity:1;fill-rule:nonzero;stroke:none"/></g></g></g></g></g></svg>